<?xml version="1.0" encoding="utf-8"?>
<!-- Generator: Adobe Illustrator 15.0.0, SVG Export Plug-In . SVG Version: 6.00 Build 0)  -->
<!DOCTYPE svg PUBLIC "-//W3C//DTD SVG 1.1//EN" "http://www.w3.org/Graphics/SVG/1.1/DTD/svg11.dtd">
<svg version="1.1" id="Calque_2" xmlns="http://www.w3.org/2000/svg" xmlns:xlink="http://www.w3.org/1999/xlink" x="0px" y="0px"
	 width="512px" height="512px" viewBox="0 0 512 512" enable-background="new 0 0 512 512" xml:space="preserve">
<path d="M384,352V112c0-8.84-7.16-16-16-16H176c-0.41,0-0.83,0.01-1.24,0.02C148.82,96.67,128,117.9,128,144v224
	c0,14.22,6.18,26.99,16,35.77c8.2,7.351,18.95,11.921,30.76,12.211c0.41,0.01,0.83,0.02,1.24,0.02h192c8.84,0,16-7.16,16-16v-16h-16
	v-32H384z M208,137.31c4.73-1.91,9.6-3.56,14.59-4.9c10.65-2.88,21.85-4.41,33.41-4.41c0.4,0,0.79,0,1.19,0.01
	c24.89,0.61,45.079,20.16,46.699,44.78c0.07,1.06,0.11,2.13,0.11,3.21c0,13.26-5.37,25.26-14.06,33.94L272,227.88V256h-32v-41.37
	L262.62,192l4.33-4.33c0.13-0.11,0.25-0.23,0.37-0.35c2.89-2.9,4.68-6.9,4.68-11.32c0-8.84-7.16-16-16-16
	c-13.66,0-26.66,2.85-38.42,8c-3.25,1.42-6.41,3.03-9.47,4.79c-0.04,0.01-0.07,0.03-0.11,0.06V137.31z M272,288v32h-32v-32H272z
	 M352,384H176c-5.92,0-11.1-3.22-13.86-8c-1.36-2.35-2.14-5.08-2.14-8c0-8.84,7.16-16,16-16h176V384z"/>
</svg>
