<?xml version="1.0" encoding="utf-8"?>
<!-- Generator: Adobe Illustrator 15.0.0, SVG Export Plug-In . SVG Version: 6.00 Build 0)  -->
<!DOCTYPE svg PUBLIC "-//W3C//DTD SVG 1.1//EN" "http://www.w3.org/Graphics/SVG/1.1/DTD/svg11.dtd">
<svg version="1.1" id="Calque_1" xmlns="http://www.w3.org/2000/svg" xmlns:xlink="http://www.w3.org/1999/xlink" x="0px" y="0px"
	 width="512px" height="512px" viewBox="0 0 512 512" enable-background="new 0 0 512 512" xml:space="preserve">
<path d="M295.556,340.764l-56.508,56.508c-8.236,8.235-18.153,13.759-28.649,16.557c-10.835,2.896-22.279,2.896-33.114,0
	c-10.497-2.798-20.414-8.321-28.65-16.557l-33.905-33.904c-8.236-8.236-13.759-18.153-16.557-28.648
	c-2.896-10.836-2.896-22.279,0-33.114c2.797-10.496,8.321-20.413,16.557-28.649l56.508-56.506c6.244-6.244,16.359-6.244,22.604,0
	l22.603,22.603l-67.866,67.865c-6.188,6.243-6.167,16.323,0.056,22.546l33.905,33.905c6.202,6.201,16.232,6.244,22.483,0.119
	l67.931-67.929l22.603,22.604C301.8,324.405,301.8,334.521,295.556,340.764z"/>
<path d="M397.271,239.051l-56.508,56.506c-6.244,6.244-16.359,6.244-22.604,0l-22.604-22.603l67.931-67.928
	c6.124-6.251,6.081-16.281-0.12-22.483l-33.905-33.904c-6.201-6.202-16.231-6.244-22.483-0.12l-67.93,67.929l-22.604-22.603
	c-6.244-6.244-6.244-16.359,0-22.603l56.537-56.536c8.229-8.229,18.125-13.731,28.614-16.535c0.007-0.007,0.015,0,0.021-0.007
	c10.836-2.896,22.265-2.882,33.1,0.014c10.497,2.797,20.414,8.32,28.65,16.556l33.904,33.905
	c8.236,8.235,13.76,18.152,16.558,28.649c2.896,10.835,2.896,22.278,0,33.113C411.03,220.898,405.507,230.815,397.271,239.051z"/>
<rect x="232.026" y="176.089" transform="matrix(0.7071 0.7071 -0.7071 0.7071 255.9994 -106.0377)" width="47.948" height="159.828"/>
</svg>
