<?xml version="1.0" encoding="utf-8"?>
<!-- Generator: Adobe Illustrator 15.0.0, SVG Export Plug-In . SVG Version: 6.00 Build 0)  -->
<!DOCTYPE svg PUBLIC "-//W3C//DTD SVG 1.1//EN" "http://www.w3.org/Graphics/SVG/1.1/DTD/svg11.dtd">
<svg version="1.1" id="Calque_1" xmlns="http://www.w3.org/2000/svg" xmlns:xlink="http://www.w3.org/1999/xlink" x="0px" y="0px"
	 width="512px" height="512px" viewBox="0 0 512 512" enable-background="new 0 0 512 512" xml:space="preserve">
<path d="M380.92,220.01C351.6,183.43,306.54,160,256,160s-95.6,23.43-124.92,60.01c-8.75,10.92-16.09,23.01-21.77,35.99
	c5.68,12.98,13.02,25.07,21.77,35.99C160.4,328.57,205.46,352,256,352s95.6-23.43,124.92-60.01c8.75-10.92,16.09-23.01,21.771-35.99
	C397.01,243.02,389.67,230.93,380.92,220.01z M256,320c-47.37,0-88.74-25.74-110.87-64c22.13-38.26,63.5-64,110.87-64
	s88.74,25.74,110.87,64C344.74,294.26,303.37,320,256,320z"/>
<path d="M304,256c0,26.51-21.49,48-48,48s-48-21.49-48-48c0-5.61,0.96-10.99,2.73-16H216c13.25,0,24-10.75,24-24v-5.27
	c5.01-1.77,10.39-2.73,16-2.73C282.51,208,304,229.49,304,256z"/>
</svg>
