<?xml version="1.0" encoding="utf-8"?>
<!-- Generator: Adobe Illustrator 15.0.0, SVG Export Plug-In . SVG Version: 6.00 Build 0)  -->
<!DOCTYPE svg PUBLIC "-//W3C//DTD SVG 1.1//EN" "http://www.w3.org/Graphics/SVG/1.1/DTD/svg11.dtd">
<svg version="1.1" id="Calque_1" xmlns="http://www.w3.org/2000/svg" xmlns:xlink="http://www.w3.org/1999/xlink" x="0px" y="0px"
	 width="512px" height="512px" viewBox="0 0 512 512" enable-background="new 0 0 512 512" xml:space="preserve">
<path d="M255.88,210.88L256,211v-0.25L255.88,210.88z M256,64C149.96,64,64,149.96,64,256s85.96,192,192,192s192-85.96,192-192
	S362.04,64,256,64z M369.14,323.88l-45.26,45.13L256.01,301H256l-67.88,68.01l-45.26-45.2l68.14-67.8V256h-0.26l-67.82-67.88
	l45.23-45.26L256,210.74v0.01l-0.12,0.13L256,211h0.01l67.87-68.08l45.26,45.23l-67.819,67.79L369.14,323.88z M301.26,256.01V256
	h-0.01L301.26,256.01z"/>
<polygon points="211,256 211,256.01 210.87,256 "/>
<polygon points="301.26,256 301.26,256.01 301.25,256 "/>
<polygon points="256.01,301 264.45,309.47 256,301 "/>
<polygon points="301.26,256 301.26,256.01 301.25,256 "/>
<polygon points="211,256 211,256.01 168.96,297.92 173.15,293.71 210.74,256 "/>
<polygon points="297.92,168.96 256.01,211 256,211 256,210.74 "/>
<polygon points="301.26,256 301.26,256.01 301.25,256 "/>
</svg>
