<?xml version="1.0" encoding="utf-8"?>
<!-- Generator: Adobe Illustrator 15.0.0, SVG Export Plug-In . SVG Version: 6.00 Build 0)  -->
<!DOCTYPE svg PUBLIC "-//W3C//DTD SVG 1.1//EN" "http://www.w3.org/Graphics/SVG/1.1/DTD/svg11.dtd">
<svg version="1.1" id="Calque_1" xmlns="http://www.w3.org/2000/svg" xmlns:xlink="http://www.w3.org/1999/xlink" x="0px" y="0px"
	 width="512px" height="512px" viewBox="0 0 512 512" enable-background="new 0 0 512 512" xml:space="preserve">
<path d="M144,160v240c0,8.84,7.16,16,16,16h192c8.84,0,16-7.16,16-16V160H144z M208,352c0,8.84-7.16,16-16,16s-16-7.16-16-16V224
	c0-8.84,7.16-16,16-16s16,7.16,16,16V352z M272,352c0,8.84-7.16,16-16,16s-16-7.16-16-16V224c0-8.84,7.16-16,16-16s16,7.16,16,16
	V352z M336,352c0,8.84-7.16,16-16,16s-16-7.16-16-16V224c0-8.84,7.16-16,16-16s16,7.16,16,16V352z"/>
<path d="M384,120c0,13.25-10.75,24-24,24H152c-13.25,0-24-10.75-24-24s10.75-24,24-24h208C373.25,96,384,106.75,384,120z"/>
</svg>
