<?xml version="1.0" encoding="utf-8"?>
<!-- Generator: Adobe Illustrator 15.0.0, SVG Export Plug-In . SVG Version: 6.00 Build 0)  -->
<!DOCTYPE svg PUBLIC "-//W3C//DTD SVG 1.1//EN" "http://www.w3.org/Graphics/SVG/1.1/DTD/svg11.dtd">
<svg version="1.1" id="Calque_1" xmlns="http://www.w3.org/2000/svg" xmlns:xlink="http://www.w3.org/1999/xlink" x="0px" y="0px"
	 width="512px" height="512px" viewBox="0 0 512 512" enable-background="new 0 0 512 512" xml:space="preserve">
<path d="M344,176c-22.62,0-42.8,10.43-56,26.75c-10.01,12.36-16,28.11-16,45.25c0,17.14,5.99,32.89,16,45.25
	c13.2,16.32,33.38,26.75,56,26.75c39.76,0,72-32.24,72-72S383.76,176,344,176z M368,256h-32v-48h16v32h16V256z"/>
<path d="M288,128v52.13c-19.55,16.13-32,40.55-32,67.87c0,27.32,12.45,51.74,32,67.87V400c0,8.84-7.16,16-16,16H112
	c-8.84,0-16-7.16-16-16V112c0-8.84,7.16-16,16-16h144L288,128z"/>
</svg>
